<svg width="64" height="64" viewBox="0 0 64 64" fill="none" xmlns="http://www.w3.org/2000/svg">
<path d="M32 61.7142C48 61.7142 59.4286 56.0548 59.4286 43.4559C59.4286 29.7645 52.5714 20.6354 38.8571 13.7874L44.2514 6.84793C44.5261 6.39274 44.6753 5.87286 44.6837 5.34126C44.6922 4.80965 44.5595 4.28531 44.2994 3.82165C44.0392 3.35798 43.6608 2.97156 43.2026 2.70174C42.7445 2.43192 42.2231 2.28835 41.6914 2.28564H22.3086C21.778 2.29116 21.2583 2.43648 20.8019 2.70696C20.3454 2.97743 19.9683 3.36349 19.7087 3.82619C19.4491 4.2889 19.316 4.81188 19.323 5.34241C19.33 5.87293 19.4768 6.39223 19.7486 6.84793L25.1428 13.8331C11.4286 20.7268 4.57141 29.8559 4.57141 43.5474C4.57141 56.0548 16 61.7142 32 61.7142Z" stroke="#B18B6B" stroke-width="3" stroke-linecap="round" stroke-linejoin="round"/>
<path d="M38.3223 31.1129C37.9816 30.1461 37.3491 29.3089 36.5123 28.7169C35.6754 28.1249 34.6754 27.8072 33.6503 27.8078H29.8195C28.7279 27.8056 27.6742 28.2074 26.8612 28.9357C26.0481 29.664 25.5333 30.6674 25.4158 31.7525C25.2983 32.8377 25.5865 33.928 26.2248 34.8135C26.8631 35.6989 27.8065 36.3169 28.8732 36.5484L34.7109 37.8284C35.9004 38.0937 36.9505 38.788 37.6603 39.7787C38.3702 40.7694 38.6901 41.9869 38.5588 43.1986C38.4276 44.4102 37.8545 45.531 36.9489 46.3468C36.0434 47.1625 34.8691 47.6159 33.6503 47.6204H30.3543C28.1966 47.6204 26.3635 46.2398 25.6823 44.3198M32 27.8078V22.8569M32 52.5712V47.6204" stroke="#B18B6B" stroke-width="3" stroke-linecap="round" stroke-linejoin="round"/>
</svg>
