<svg width="64" height="64" viewBox="0 0 64 64" fill="none" xmlns="http://www.w3.org/2000/svg">
<path d="M32.0001 59.9998C47.4641 59.9998 60.0001 47.4637 60.0001 31.9998C60.0001 16.5358 47.4641 3.99976 32.0001 3.99976C16.5361 3.99976 4.00012 16.5358 4.00012 31.9998C4.00012 47.4637 16.5361 59.9998 32.0001 59.9998Z" stroke="#B18B6B" stroke-width="3.1"/>
<path d="M31.9996 15.1982V48.7983M40.3996 24.9982C40.3996 21.1342 36.6392 17.9982 31.9996 17.9982C27.36 17.9982 23.5996 21.1342 23.5996 24.9982C23.5996 28.8622 27.36 31.9982 31.9996 31.9982C36.6392 31.9982 40.3996 35.1343 40.3996 38.9983C40.3996 42.8623 36.6392 45.9983 31.9996 45.9983C27.36 45.9983 23.5996 42.8623 23.5996 38.9983" stroke="#B18B6B" stroke-width="3.1" stroke-linecap="round"/>
</svg>
