<svg width="64" height="64" viewBox="0 0 64 64" fill="none" xmlns="http://www.w3.org/2000/svg">
<path d="M31.0795 55.8327C31.4711 55.8327 31.8727 55.7448 32.2843 55.569C32.6959 55.3931 33.0286 55.1783 33.2824 54.9246L56.6472 31.5567C57.4005 30.8035 57.9819 30.0342 58.3915 29.249C58.7991 28.4598 59.0029 27.5946 59.0029 26.6536C59.0029 25.7005 58.7991 24.7754 58.3915 23.8783C57.9819 22.9792 57.4005 22.16 56.6472 21.4207L45.4084 10.1819C44.6671 9.42862 43.9048 8.87616 43.1216 8.52451C42.3404 8.17286 41.4732 7.99703 40.5202 7.99703C39.5791 7.99703 38.705 8.17286 37.8978 8.52451C37.0906 8.87616 36.3303 9.42762 35.617 10.1789L33.0036 12.7923L38.5481 18.3518C39.1436 18.9372 39.5881 19.6025 39.8818 20.3478C40.1735 21.0931 40.3194 21.8493 40.3194 22.6166C40.3194 24.177 39.8089 25.4677 38.7879 26.4887C37.7669 27.5097 36.4772 28.0192 34.9187 28.0172C34.1495 28.0172 33.3992 27.9003 32.668 27.6666C31.9367 27.4328 31.2783 27.0232 30.6929 26.4378L24.9596 20.7254L12.0184 33.6636C11.7167 33.9673 11.4899 34.312 11.3381 34.6976C11.1862 35.0832 11.1103 35.4728 11.1103 35.8665C11.1103 36.5738 11.3371 37.1562 11.7906 37.6137C12.2422 38.0733 12.8216 38.303 13.5289 38.303C13.9205 38.303 14.3221 38.2151 14.7337 38.0393C15.1453 37.8615 15.478 37.6457 15.7317 37.3919L25.2293 27.8943L27.3512 30.0162L17.8686 39.5168C17.5649 39.8185 17.3371 40.1622 17.1853 40.5478C17.0354 40.9354 16.9605 41.3251 16.9605 41.7167C16.9605 42.386 17.1963 42.9564 17.6678 43.428C18.1393 43.8995 18.7098 44.1363 19.3791 44.1383C19.7707 44.1383 20.1723 44.0494 20.5839 43.8715C20.9955 43.6937 21.3282 43.4789 21.5819 43.2272L31.7718 33.0552L33.8937 35.1741L23.7188 45.3641C23.4531 45.6178 23.2353 45.9505 23.0655 46.3621C22.8936 46.7737 22.8077 47.1753 22.8077 47.5669C22.8077 48.2342 23.0445 48.8036 23.518 49.2752C23.9895 49.7507 24.56 49.9885 25.2293 49.9885C25.6209 49.9885 26.0105 49.9126 26.3982 49.7607C26.7858 49.6089 27.1294 49.3811 27.4291 49.0774L37.6191 38.9025L39.741 41.0243L29.551 51.2143C29.2493 51.518 29.0226 51.8826 28.8707 52.3082C28.7189 52.7338 28.6429 53.1224 28.6429 53.474C28.6429 54.1813 28.8917 54.7518 29.3892 55.1853C29.8867 55.6189 30.4502 55.8357 31.0795 55.8357M31.0616 58.8327C29.5211 58.8327 28.2024 58.2693 27.1055 57.1424C26.0086 56.0135 25.527 54.6209 25.6609 52.9645C23.9626 52.9845 22.549 52.478 21.4201 51.445C20.2912 50.4101 19.7547 48.9675 19.8107 47.1173C17.9605 47.1373 16.502 46.6078 15.435 45.5289C14.3681 44.45 13.8826 43.0294 13.9785 41.2671C12.3121 41.2871 10.9175 40.8176 9.7946 39.8585C8.67371 38.9035 8.11326 37.5728 8.11326 35.8665C8.11326 35.0972 8.26212 34.328 8.55982 33.5587C8.85753 32.7875 9.29709 32.1102 9.87851 31.5267L24.9596 16.4637L32.6979 24.202C32.9517 24.4677 33.2654 24.6865 33.639 24.8583C34.0126 25.0302 34.4332 25.1151 34.9008 25.1131C35.5421 25.1131 36.1086 24.8893 36.6001 24.4418C37.0916 23.9942 37.3383 23.4108 37.3403 22.6915C37.3403 22.224 37.2544 21.8044 37.0826 21.4327C36.9108 21.0591 36.693 20.7454 36.4292 20.4917L26.1194 10.1819C25.3762 9.42862 24.6039 8.87616 23.8027 8.52451C23.0015 8.17286 22.1244 7.99703 21.1713 7.99703C20.2303 7.99703 19.3751 8.17286 18.6059 8.52451C17.8386 8.87616 17.0784 9.42862 16.3251 10.1819L7.20216 19.3228C6.5588 19.9622 6.03931 20.7264 5.64371 21.6156C5.2481 22.5027 5.03831 23.4188 5.01433 24.3638C4.99435 25.0412 5.05229 25.6915 5.18816 26.3149C5.32402 26.9383 5.5438 27.5257 5.8475 28.0772L3.57575 30.3489C3.07225 29.5457 2.67864 28.6206 2.39492 27.5737C2.1112 26.5267 1.98033 25.4578 2.00231 24.3668C2.02629 23.0042 2.29902 21.7005 2.8205 20.4557C3.34198 19.2109 4.08924 18.101 5.06228 17.126L14.1283 8.05997C15.1733 7.025 16.2792 6.25576 17.446 5.75226C18.6129 5.25075 19.8746 5 21.2313 5C22.5879 5 23.8387 5.25175 24.9836 5.75525C26.1304 6.25676 27.2214 7.025 28.2563 8.05997L30.8637 10.6704L33.4772 8.05997C34.5221 7.025 35.618 6.25576 36.7649 5.75226C37.9118 5.25075 39.1635 5 40.5202 5C41.8769 5 43.1386 5.25175 44.3054 5.75525C45.4703 6.25676 46.5692 7.025 47.6022 8.05997L58.7691 19.2239C59.8021 20.2569 60.5993 21.4168 61.1608 22.7035C61.7222 23.9902 62.0019 25.3119 61.9999 26.6686C61.9999 28.0272 61.7202 29.279 61.1608 30.4238C60.6013 31.5687 59.8041 32.6596 58.7691 33.6966L35.4013 57.0435C34.7799 57.6669 34.1025 58.1204 33.3693 58.4042C32.638 58.6879 31.8688 58.8297 31.0616 58.8297" fill="#B18B6B"/>
</svg>
