<svg width="10" height="7" viewBox="0 0 10 7" fill="none" xmlns="http://www.w3.org/2000/svg">
<path d="M3.63905 6.37575C3.45682 6.37588 3.27636 6.33985 3.10814 6.26976C2.93993 6.19967 2.78728 6.0969 2.65905 5.96741L0.916636 4.22791C0.835325 4.14665 0.770823 4.05017 0.726815 3.94397C0.682807 3.83778 0.660156 3.72395 0.660156 3.609C0.660156 3.49404 0.682807 3.38022 0.726815 3.27402C0.770823 3.16782 0.835325 3.07134 0.916636 2.99008C1.08072 2.82604 1.30324 2.73389 1.53526 2.73389C1.76728 2.73389 1.9898 2.82604 2.15389 2.99008L3.63905 4.47466L7.84605 0.267663C8.01014 0.103626 8.23266 0.0114746 8.46468 0.0114746C8.6967 0.0114746 8.91922 0.103626 9.0833 0.267663C9.16461 0.348921 9.22912 0.445406 9.27312 0.551602C9.31713 0.657799 9.33978 0.771626 9.33978 0.886579C9.33978 1.00153 9.31713 1.11536 9.27312 1.22156C9.22912 1.32775 9.16461 1.42424 9.0833 1.5055L4.61847 5.97033C4.49011 6.09927 4.33746 6.2015 4.16935 6.27108C4.00123 6.34067 3.821 6.37624 3.63905 6.37575Z" fill="#B18B6B"/>
</svg>
