<svg width="64" height="64" viewBox="0 0 64 64" fill="none" xmlns="http://www.w3.org/2000/svg">
<path d="M19 44.5586L45 18.5586M25.5 21.8086C25.5 22.6705 25.1576 23.4972 24.5481 24.1067C23.9386 24.7162 23.112 25.0586 22.25 25.0586C21.388 25.0586 20.5614 24.7162 19.9519 24.1067C19.3424 23.4972 19 22.6705 19 21.8086C19 20.9466 19.3424 20.12 19.9519 19.5105C20.5614 18.901 21.388 18.5586 22.25 18.5586C23.112 18.5586 23.9386 18.901 24.5481 19.5105C25.1576 20.12 25.5 20.9466 25.5 21.8086ZM45 40.7496C45 41.6115 44.6576 42.4382 44.0481 43.0477C43.4386 43.6572 42.612 43.9996 41.75 43.9996C40.888 43.9996 40.0614 43.6572 39.4519 43.0477C38.8424 42.4382 38.5 41.6115 38.5 40.7496C38.5 39.8876 38.8424 39.061 39.4519 38.4515C40.0614 37.842 40.888 37.4996 41.75 37.4996C42.612 37.4996 43.4386 37.842 44.0481 38.4515C44.6576 39.061 45 39.8876 45 40.7496Z" stroke="#B18B6B" stroke-width="3" stroke-linecap="round" stroke-linejoin="round"/>
<path d="M32 58.6668C46.7276 58.6668 58.6666 46.7278 58.6666 32.0002C58.6666 17.2726 46.7276 5.3335 32 5.3335C17.2724 5.3335 5.33331 17.2726 5.33331 32.0002C5.33331 46.7278 17.2724 58.6668 32 58.6668Z" stroke="#B18B6B" stroke-width="3" stroke-linecap="round" stroke-linejoin="round"/>
</svg>
