<svg width="64" height="64" viewBox="0 0 64 64" fill="none" xmlns="http://www.w3.org/2000/svg">
<path d="M32 6.3999C28.6052 6.3999 25.3495 7.74847 22.949 10.1489C20.5486 12.5494 19.2 15.8051 19.2 19.1999C19.2 22.5947 20.5486 25.8504 22.949 28.2509C25.3495 30.6513 28.6052 31.9999 32 31.9999C35.3948 31.9999 38.6505 30.6513 41.051 28.2509C43.4514 25.8504 44.8 22.5947 44.8 19.1999C44.8 15.8051 43.4514 12.5494 41.051 10.1489C38.6505 7.74847 35.3948 6.3999 32 6.3999ZM22.4 19.1999C22.4 16.6538 23.4114 14.212 25.2118 12.4117C27.0121 10.6113 29.4539 9.5999 32 9.5999C34.5461 9.5999 36.9879 10.6113 38.7882 12.4117C40.5886 14.212 41.6 16.6538 41.6 19.1999C41.6 21.746 40.5886 24.1878 38.7882 25.9881C36.9879 27.7885 34.5461 28.7999 32 28.7999C29.4539 28.7999 27.0121 27.7885 25.2118 25.9881C23.4114 24.1878 22.4 21.746 22.4 19.1999ZM16.0288 35.1999C15.1859 35.1961 14.3506 35.3589 13.5708 35.6788C12.791 35.9987 12.082 36.4695 11.4847 37.0642C10.8873 37.6589 10.4133 38.3657 10.0899 39.1441C9.76649 39.9224 9.6 40.757 9.60001 41.5999C9.60001 47.0111 12.2656 51.0911 16.432 53.7503C20.5344 56.3647 26.064 57.5999 32 57.5999C37.936 57.5999 43.4656 56.3647 47.568 53.7503C51.7344 51.0943 54.4 47.0079 54.4 41.5999C54.4 39.9025 53.7257 38.2747 52.5255 37.0744C51.3253 35.8742 49.6974 35.1999 48 35.1999H16.0288ZM12.8 41.5999C12.8 39.8303 14.2336 38.3999 16.0288 38.3999H48C48.8487 38.3999 49.6626 38.737 50.2627 39.3372C50.8629 39.9373 51.2 40.7512 51.2 41.5999C51.2 45.7887 49.2096 48.9087 45.8464 51.0495C42.4224 53.2351 37.552 54.3999 32 54.3999C26.448 54.3999 21.5776 53.2351 18.1536 51.0495C14.7936 48.9055 12.8 45.7919 12.8 41.5999Z" fill="#B18B6B"/>
</svg>
