<svg width="64" height="64" viewBox="0 0 64 64" fill="none" xmlns="http://www.w3.org/2000/svg">
<path d="M33.6841 39.9981C33.6841 40.6816 33.4126 41.3372 32.9292 41.8205C32.4459 42.3039 31.7903 42.5754 31.1068 42.5754C30.4232 42.5754 29.7676 42.3039 29.2843 41.8205C28.801 41.3372 28.5294 40.6816 28.5294 39.9981C28.5294 39.3145 28.801 38.659 29.2843 38.1756C29.7676 37.6923 30.4232 37.4207 31.1068 37.4207C31.7903 37.4207 32.4459 37.6923 32.9292 38.1756C33.4126 38.659 33.6841 39.3145 33.6841 39.9981ZM33.0398 18.735C33.0398 18.2223 32.8361 17.7307 32.4736 17.3682C32.1111 17.0057 31.6194 16.802 31.1068 16.802C30.5941 16.802 30.1024 17.0057 29.7399 17.3682C29.3774 17.7307 29.1738 18.2223 29.1738 18.735V30.333C29.1738 30.8457 29.3774 31.3374 29.7399 31.6999C30.1024 32.0624 30.5941 32.266 31.1068 32.266C31.6194 32.266 32.1111 32.0624 32.4736 31.6999C32.8361 31.3374 33.0398 30.8457 33.0398 30.333V18.735Z" fill="#B18B6B"/>
<path d="M29.715 1.69105C30.6196 1.39758 31.5939 1.39758 32.4985 1.69105L53.7616 8.58543C54.6677 8.87937 55.4575 9.45265 56.0177 10.2231C56.5779 10.9935 56.8798 11.9215 56.8802 12.8741V25.8227C56.8802 41.7764 47.1636 53.4131 32.6506 58.89C31.6555 59.2646 30.5581 59.2646 29.5629 58.89C15.0525 53.4105 5.33337 41.7764 5.33337 25.8227V12.8741C5.33337 10.9153 6.59627 9.18853 8.45196 8.58543L29.715 1.69105ZM31.3052 5.36633C31.1762 5.32457 31.0373 5.32457 30.9083 5.36633L9.64526 12.2659C9.51605 12.3077 9.40336 12.3893 9.32328 12.499C9.24321 12.6087 9.19984 12.7409 9.19938 12.8767V25.8227C9.19938 39.8975 17.6531 50.2636 30.9264 55.2714C31.0427 55.3148 31.1708 55.3148 31.2872 55.2714C44.5605 50.2636 53.0142 39.895 53.0142 25.8227V12.8741C53.0137 12.7383 52.9703 12.6061 52.8903 12.4964C52.8102 12.3867 52.6975 12.3051 52.5683 12.2633L31.3052 5.36633Z" fill="#B18B6B"/>
</svg>
