<svg width="64" height="64" viewBox="0 0 64 64" fill="none" xmlns="http://www.w3.org/2000/svg">
<path d="M37.2681 62L37.0666 54.1135H32.0568C24.8142 54.1135 18.6613 51.5819 13.5982 46.5188C8.53506 41.4557 6.00235 35.3017 6.00003 28.0567C5.99772 20.8118 8.53043 14.6589 13.5982 9.59815C18.6659 4.53735 24.8188 2.00463 32.0568 2C35.6792 2 39.0701 2.67863 42.2293 4.0359C45.3886 5.39085 48.1483 7.24841 50.5084 9.60857C52.8686 11.9687 54.7261 14.7273 56.0811 17.8842C57.436 21.0457 58.1135 24.4366 58.1135 28.0567C58.1135 31.5981 57.5935 34.9994 56.5536 38.2606C55.5136 41.5217 54.0753 44.6034 52.2386 47.5055C50.4019 50.4076 48.2015 53.0828 45.6376 55.531C43.0736 57.9792 40.2838 60.1343 37.2681 61.9965M40.7424 55.3295C44.8535 51.8552 48.1981 47.7881 50.7759 43.128C53.3538 38.4679 54.6416 33.4441 54.6393 28.0567C54.6393 21.7452 52.4528 16.4042 48.0799 12.0336C43.707 7.663 38.366 5.47655 32.0568 5.47423C25.7476 5.47192 20.4065 7.65837 16.0336 12.0336C11.6607 16.4088 9.47426 21.7499 9.47426 28.0567C9.47426 34.3636 11.6607 39.7058 16.0336 44.0834C20.4065 48.4609 25.7476 50.6462 32.0568 50.6393H40.7424V55.3295ZM32.1714 45.6746C32.8894 45.6746 33.4951 45.4279 33.9884 44.9346C34.4818 44.4412 34.7285 43.8356 34.7285 43.1175C34.7285 42.3995 34.4818 41.7939 33.9884 41.3005C33.4951 40.8072 32.8894 40.5593 32.1714 40.557C31.4534 40.557 30.8477 40.8049 30.3544 41.3005C29.8587 41.7939 29.6109 42.3995 29.6109 43.1175C29.6109 43.8356 29.8576 44.4412 30.3509 44.9346C30.8466 45.4279 31.4534 45.6746 32.1714 45.6746ZM30.6532 35.5124H33.7279C33.8159 34.088 34.0892 32.9612 34.5478 32.132C35.0064 31.3052 36.095 30.0313 37.8136 28.3104C38.8142 27.3144 39.6063 26.2965 40.19 25.2565C40.7713 24.2189 41.062 23.0284 41.062 21.685C41.062 19.1766 40.1969 17.2067 38.4667 15.7753C36.7366 14.3439 34.6439 13.6271 32.1888 13.6248C30.0417 13.6248 28.2235 14.2119 26.7343 15.3862C25.2403 16.5605 24.1459 17.9606 23.4511 19.5866L26.3104 20.6948C26.7783 19.6665 27.4615 18.7296 28.3602 17.8842C29.2612 17.0411 30.5374 16.6196 32.1888 16.6196C34.1529 16.6196 35.604 17.1534 36.542 18.2212C37.4801 19.2913 37.9491 20.4586 37.9491 21.7232C37.9491 22.8859 37.648 23.8691 37.0458 24.6728C36.4459 25.4765 35.6735 26.3509 34.7285 27.2959C33.0585 28.7666 31.9618 30.0869 31.4384 31.2565C30.9149 32.4262 30.6532 33.8448 30.6532 35.5124Z" fill="#B18B6B"/>
</svg>
