<svg width="21" height="19" viewBox="0 0 21 19" fill="none" xmlns="http://www.w3.org/2000/svg">
<path fill-rule="evenodd" clip-rule="evenodd" d="M1.60043 8.29943C7.13931 5.88622 10.8328 4.29529 12.6808 3.52663C17.9573 1.33195 19.0537 0.950711 19.7683 0.938123C19.9255 0.935354 20.2769 0.974306 20.5046 1.15902C20.6968 1.31499 20.7497 1.52569 20.775 1.67357C20.8003 1.82144 20.8318 2.15831 20.8068 2.42153C20.5208 5.42588 19.2836 12.7166 18.6542 16.0816C18.3878 17.5054 17.8634 17.9828 17.3557 18.0295C16.2523 18.131 15.4145 17.3003 14.3458 16.5998C12.6736 15.5036 11.7289 14.8213 10.1056 13.7516C8.22975 12.5154 9.44582 11.836 10.5149 10.7256C10.7947 10.435 15.6561 6.01313 15.7502 5.612C15.762 5.56183 15.7729 5.37483 15.6618 5.27608C15.5507 5.17734 15.3867 5.21111 15.2684 5.23796C15.1007 5.27603 12.4293 7.04175 7.25411 10.5351C6.49583 11.0558 5.80901 11.3095 5.19363 11.2962C4.51524 11.2816 3.21027 10.9126 2.24016 10.5973C1.05029 10.2105 0.104596 10.006 0.186945 9.34915C0.229837 9.00701 0.700997 8.6571 1.60043 8.29943Z" fill="white"/>
</svg>
