<svg width="38" height="39" viewBox="0 0 38 39" fill="none" xmlns="http://www.w3.org/2000/svg">
<rect y="0.5" width="38" height="38" rx="6" fill="#2AABEE"/>
<path fill-rule="evenodd" clip-rule="evenodd" d="M8.60036 19.2995C14.1393 16.8863 17.8327 15.2953 19.6807 14.5267C24.9572 12.332 26.0537 11.9508 26.7683 11.9382C26.9255 11.9354 27.2769 11.9744 27.5045 12.1591C27.6967 12.315 27.7496 12.5257 27.7749 12.6736C27.8003 12.8215 27.8318 13.1584 27.8067 13.4216C27.5208 16.4259 26.2835 23.7167 25.6541 27.0816C25.3878 28.5054 24.8633 28.9828 24.3556 29.0296C23.2523 29.1311 22.4144 28.3004 21.3458 27.5999C19.6735 26.5037 18.7288 25.8213 17.1056 24.7516C15.2297 23.5155 16.4458 22.836 17.5148 21.7256C17.7946 21.4351 22.6561 17.0132 22.7502 16.6121C22.7619 16.5619 22.7728 16.3749 22.6617 16.2761C22.5507 16.1774 22.3867 16.2112 22.2684 16.238C22.1006 16.2761 19.4292 18.0418 14.254 21.5352C13.4958 22.0559 12.8089 22.3096 12.1936 22.2963C11.5152 22.2816 10.2102 21.9127 9.2401 21.5973C8.05023 21.2106 7.10454 21.0061 7.18688 20.3492C7.22978 20.0071 7.70094 19.6571 8.60036 19.2995Z" fill="white"/>
</svg>
