<svg width="38" height="39" viewBox="0 0 38 39" fill="none" xmlns="http://www.w3.org/2000/svg">
<rect y="0.5" width="38" height="38" rx="6" fill="#20B038"/>
<path d="M8.18188 30.2264L9.79151 24.3754C8.80225 22.659 8.28264 20.7123 8.28497 18.7312C8.27352 12.4888 13.3436 7.41935 19.5739 7.41935C22.5971 7.41935 25.4364 8.59171 27.5749 10.7302C28.6287 11.7785 29.4639 13.0255 30.0322 14.3989C30.6006 15.7723 30.8907 17.2449 30.8858 18.7312C30.8858 24.9615 25.8157 30.031 19.5854 30.031C17.6887 30.031 15.8379 29.5593 14.1825 28.6518L8.18188 30.2264ZM14.4472 26.617L14.7915 26.8238C16.2397 27.6807 17.8913 28.1333 19.5739 28.1343C24.7471 28.1343 28.9663 23.9159 28.9663 18.742C28.9663 16.2363 27.9893 13.8686 26.2186 12.0987C25.3479 11.223 24.3125 10.5284 23.1721 10.0547C22.0317 9.58106 20.8088 9.33779 19.5739 9.33891C14.3893 9.33891 10.1708 13.558 10.1708 18.7312C10.1708 20.5012 10.6647 22.2375 11.6073 23.7319L11.8256 24.0883L10.8716 27.5596L14.4466 26.617H14.4472Z" fill="url(#paint0_linear_172_2583)"/>
<path fill-rule="evenodd" clip-rule="evenodd" d="M16.7582 13.9952C16.5514 13.5236 16.3216 13.5121 16.1262 13.5121C15.9537 13.5007 15.7691 13.5007 15.5737 13.5007C15.3905 13.5007 15.0799 13.5694 14.8151 13.8571C14.551 14.1441 13.8267 14.8226 13.8267 16.2132C13.8267 17.6046 14.8387 18.9494 14.9761 19.1333C15.1142 19.3173 16.93 22.2596 19.8043 23.3983C22.1962 24.3409 22.6786 24.157 23.1954 24.099C23.7128 24.0417 24.8623 23.4212 25.1042 22.7542C25.3333 22.0993 25.3333 21.5245 25.2652 21.4093C25.1958 21.2948 25.0004 21.2254 24.7248 21.0758C24.4371 20.9384 23.0579 20.2484 22.7932 20.1561C22.529 20.0645 22.3451 20.0187 22.1612 20.2942C21.9772 20.5819 21.4369 21.2139 21.265 21.3979C21.1033 21.5818 20.9309 21.6047 20.6553 21.4666C20.3676 21.3292 19.4594 21.03 18.3793 20.0645C17.5398 19.3166 16.9765 18.3861 16.804 18.1106C16.643 17.8229 16.7811 17.6733 16.9307 17.5352C17.0574 17.4092 17.2177 17.2023 17.3559 17.0413C17.494 16.8796 17.5398 16.7536 17.6436 16.5697C17.7352 16.3857 17.6894 16.2132 17.6206 16.0758C17.5512 15.9491 17.0109 14.5585 16.7582 13.9952Z" fill="white"/>
<defs>
<linearGradient id="paint0_linear_172_2583" x1="19.5315" y1="30.2291" x2="19.5315" y2="7.42272" gradientUnits="userSpaceOnUse">
<stop stop-color="#F9F9F9"/>
<stop offset="1" stop-color="white"/>
</linearGradient>
</defs>
</svg>
