<svg width="33" height="32" viewBox="0 0 33 32" fill="none" xmlns="http://www.w3.org/2000/svg">
<path d="M16.9345 1C10.4345 1 4.88447 5.2 2.83447 11H31.1345C29.0345 5.2 23.4845 1 16.9345 1Z" fill="#F9F9F9"/>
<path d="M16.9345 31C23.4845 31 29.0345 26.8 31.0845 21H2.83447C4.88447 26.85 10.4345 31 16.9345 31Z" fill="#ED4C5C"/>
<path d="M2.83438 11C2.28438 12.55 1.98438 14.25 1.98438 16C1.98438 17.75 2.28438 19.45 2.83438 21H31.1344C31.6844 19.45 31.9844 17.75 31.9844 16C31.9844 14.25 31.6844 12.55 31.1344 11H2.83438Z" fill="#428BC1"/>
</svg>
