<svg width="31" height="30" viewBox="0 0 31 30" fill="none" xmlns="http://www.w3.org/2000/svg">
<mask id="mask0_356_378" style="mask-type:luminance" maskUnits="userSpaceOnUse" x="0" y="0" width="31" height="30">
<path d="M15.3181 30C23.6024 30 30.3181 23.2843 30.3181 15C30.3181 6.71573 23.6024 0 15.3181 0C7.03384 0 0.318115 6.71573 0.318115 15C0.318115 23.2843 7.03384 30 15.3181 30Z" fill="white"/>
</mask>
<g mask="url(#mask0_356_378)">
<path d="M15.3181 0H30.3181V3.75L28.4431 5.625L30.3181 7.5V11.25L28.4431 13.125L30.3181 15V18.75L28.4431 20.625L30.3181 22.5V26.25L15.3181 28.125L0.318115 26.25V22.5L2.19312 20.625L0.318115 18.75V15L15.3181 0Z" fill="#F9F9F9"/>
<path d="M13.4431 3.75H30.3181V7.5H13.4431V3.75ZM13.4431 11.25H30.3181V15H15.3181L13.4431 11.25ZM0.318115 18.75H30.3181V22.5H0.318115V18.75ZM0.318115 26.25H30.3181V30H0.318115V26.25Z" fill="#ED4C5C"/>
<path d="M0.318115 0H15.3181V15H0.318115V0Z" fill="#428BC1"/>
<path d="M11.2751 14.2383L14.615 11.8359H10.5134L13.8533 14.2383L12.5642 10.3125L11.2751 14.2383ZM6.52905 14.2383L9.8689 11.8359H5.76733L9.10718 14.2383L7.81812 10.3125L6.52905 14.2383ZM1.78296 14.2383L5.1228 11.8359H1.02124L4.36108 14.2383L3.07202 10.3125L1.78296 14.2383ZM11.2751 9.49219L14.615 7.08984H10.5134L13.8533 9.49219L12.5642 5.56641L11.2751 9.49219ZM6.52905 9.49219L9.8689 7.08984H5.76733L9.10718 9.49219L7.81812 5.56641L6.52905 9.49219ZM1.78296 9.49219L5.1228 7.08984H1.02124L4.36108 9.49219L3.07202 5.56641L1.78296 9.49219ZM11.2751 4.6875L14.615 2.28516H10.5134L13.8533 4.6875L12.5642 0.761719L11.2751 4.6875ZM6.52905 4.6875L9.8689 2.28516H5.76733L9.10718 4.6875L7.81812 0.761719L6.52905 4.6875ZM1.78296 4.6875L5.1228 2.28516H1.02124L4.36108 4.6875L3.07202 0.761719L1.78296 4.6875Z" fill="#F9F9F9"/>
</g>
</svg>
