<svg width="144" height="44" viewBox="0 0 144 44" fill="none" xmlns="http://www.w3.org/2000/svg">
<g clip-path="url(#clip0_331_1073)">
<path d="M144 0H0V43.6858H144V0Z" fill="#B18B6B"/>
<path d="M17.0163 30.0855V13.5159L21.9625 8.57675H25.9589V5.4106H29.9377V8.57675H33.8954L38.8381 13.5159V30.0855L33.8954 35.3905H29.9377V38.2788H25.9589V35.3905H21.9625L17.0163 30.0855ZM20.9986 28.7416L23.6863 31.6685H25.9659V12.3867H23.6441L21.0021 15.0146V28.7451L20.9986 28.7416ZM29.9447 31.6685H32.1927L34.8663 28.7416V15.0111L32.2349 12.3832H29.9447V31.665V31.6685Z" fill="white"/>
<path d="M41.9269 16.4323V13.4104H46.7535V22.1701L46.2962 32.1786L46.3947 32.1821L48.8467 22.3389L51.6786 13.4104H55.7735V38.2787H52.7516V26.2896L53.318 17.6214L53.4798 17.7269L51.0841 26.2016L46.947 38.2787H43.7281V17.3927L44.9629 16.661V16.4323H41.9269Z" fill="white"/>
<path d="M58.9572 16.4323V13.4104H63.7874V24.3969H69.409V13.4104H72.4309V38.2787H69.409V27.2922H63.7874V38.2787H60.7619V17.3962L61.9967 16.661V16.4323H58.9572Z" fill="white"/>
<path d="M74.7106 12.4676V5.40707H92.6873V12.4676H89.1764V9.04463H85.6479V38.2787H81.6655V9.04463H78.2215V12.4676H74.7106Z" fill="white"/>
<path d="M95.2484 16.369V13.3471H107.227V19.2467H104.205V16.369H100.043V24.4321H105.668V27.454H100.043V35.2568H104.497V32.6887H107.522V38.2787H97.0214V17.3751L98.2879 16.6117V16.369H95.2484Z" fill="white"/>
<path d="M109.844 38.2787L114.639 24.6573L112.022 17.1007L113.046 16.4007V16.1755H109.876V13.3471H113.907L117.045 22.9018H117.176L120.264 13.3471H123.434L119.589 24.6573L124.296 38.2787H121.109L117.176 26.3986H117.045L113.046 38.2787H109.844Z" fill="white"/>
</g>
<defs>
<clipPath id="clip0_331_1073">
<rect width="144" height="43.6858" fill="white"/>
</clipPath>
</defs>
</svg>
